<?xml version="1.0" encoding="iso-8859-1"?>
<!-- Uploaded to: SVG Repo, www.svgrepo.com, Generator: SVG Repo Mixer Tools -->
<svg xmlns="http://www.w3.org/2000/svg" xmlns:xlink="http://www.w3.org/1999/xlink" version="1.1" id="Layer_1"  viewBox="0 0 445.656 445.656" xml:space="preserve" width="512" height="512">
<g>
	<path style="fill:#00B3E3;" d="M214.374,31.988C100.121,31.988,7.5,124.609,7.5,238.863v79.319   c0,23.72,19.228,42.948,42.948,42.948h8.584c9.489,0,17.182,7.693,17.182,17.182s7.692,17.181,17.181,17.181h92.457   c31.718,0,57.431-25.712,57.431-57.431c0-36.474-14.898-133.862,110.056-133.862h65.014l0.016,0.061   C401.902,106.48,316.837,31.988,214.374,31.988z M155.872,339.604c-13.488,0-24.423-10.935-24.423-24.423   c0-13.489,10.935-24.423,24.423-24.423c13.488,0,24.423,10.934,24.423,24.423C180.295,328.669,169.36,339.604,155.872,339.604z"/>
	<circle style="fill:#0071CE;" cx="129.177" cy="156.943" r="63.613"/>
	<polygon style="fill:#FFFFFF;" points="210.662,127.197 52.673,217.148 52.673,176.465 210.662,86.514  "/>
	<path d="M438.156,298.847H278.671v-66.362c16.896-13.795,41.959-20.785,74.667-20.785h64.061c0.819,0.107,1.668,0.079,2.52-0.101   c3.934-0.832,6.512-4.618,5.844-8.583c-8.315-49.377-33.982-94.574-72.274-127.263c-38.724-33.058-88.13-51.264-139.115-51.264   c-57.261,0-111.095,22.299-151.585,62.789C22.299,127.767,0,181.602,0,238.863v79.319c0,27.817,22.631,50.448,50.448,50.448h8.584   c5.338,0,9.682,4.343,9.682,9.682c0,13.609,11.072,24.681,24.681,24.681h92.457c33.368,0,60.927-25.305,64.522-57.73h13.298v25.24   h0.178c0.932,18.597,5.799,31.799,14.826,40.202c10.076,9.379,23.126,10.464,32.065,10.464h81.953   c26.729,0,52.963-28.472,52.963-57.482v-57.339C445.656,302.205,442.298,298.847,438.156,298.847z M278.671,214.133V211.7h4.219   C281.453,212.481,280.044,213.291,278.671,214.133z M263.671,330.262H250.64c-0.03-1.051-0.063-2.119-0.097-3.208   c-0.127-4.101-0.263-8.542-0.303-13.207h13.432V330.262z M263.671,298.847h-13.126c0.895-16.405,4.019-34.024,13.126-49.044   V298.847z M263.671,225.793c-0.491,0.482-0.981,0.963-1.459,1.457c-19.91,20.537-25.424,47.925-26.663,71.597h-14.063   l-7.433-11.736l49.617-63.183V225.793z M235.358,320.749l-4.372-6.902h4.257C235.261,316.23,235.304,318.529,235.358,320.749z    M269.628,196.7c-2.302,0-4.477,1.057-5.898,2.868l-64.746,82.447c-1.962,2.499-2.137,5.961-0.438,8.645l32.373,51.115   c1.015,1.603,2.585,2.735,4.371,3.22c-3.386,24.261-24.26,42.998-49.438,42.998H93.395c-5.338,0-9.681-4.343-9.681-9.681   c0-13.609-11.072-24.682-24.682-24.682h-8.584C30.902,353.629,15,337.728,15,318.182v-79.319   c0-109.936,89.439-199.375,199.374-199.375c47.418,0,93.365,16.931,129.376,47.672c33.326,28.45,56.371,67.08,65.531,109.539   H269.628z M378.756,406.167H310.74c-15.515,0-32.068-3.283-32.068-42.482v-18.424h100.085V406.167z M378.756,330.262H278.671   v-16.415h100.085V330.262z M430.656,363.686c0,22.008-20.344,41.628-36.9,42.443v-60.867h36.9V363.686z M430.656,330.262h-36.9   v-16.415h36.9V330.262z M214.432,80.03c-2.31-1.343-5.158-1.356-7.48-0.034l-35.17,20.024   C159.526,90.844,144.6,85.83,129.178,85.83c-39.212,0-71.113,31.901-71.113,71.113c0,2.533,0.151,5.068,0.418,7.584l-9.521,5.42   c-2.342,1.333-3.789,3.822-3.789,6.518v40.683c0,2.671,1.421,5.141,3.731,6.484c1.165,0.677,2.467,1.016,3.769,1.016   c1.28,0,2.56-0.327,3.711-0.982l24.91-14.182c13.031,11.856,30.161,18.572,47.884,18.572c39.212,0,71.113-31.901,71.113-71.113   c0-4.852-0.499-9.665-1.466-14.375l15.549-8.853c2.342-1.333,3.789-3.822,3.789-6.518V86.514   C218.162,83.843,216.741,81.373,214.432,80.03z M129.178,100.83c9.904,0,19.548,2.625,28.008,7.501l-84.103,47.884   C73.476,125.609,98.481,100.83,129.178,100.83z M129.178,213.056c-12.32,0-24.275-4.116-33.98-11.489l89.72-51.082   c0.245,2.136,0.373,4.291,0.373,6.458C185.29,187.884,160.119,213.056,129.178,213.056z M203.162,122.837L60.173,204.248v-23.422   l142.989-81.411V122.837z M155.872,283.258c-17.602,0-31.923,14.32-31.923,31.923c0,17.603,14.32,31.923,31.923,31.923   c17.603,0,31.923-14.32,31.923-31.923C187.795,297.579,173.475,283.258,155.872,283.258z M155.872,332.104   c-9.331,0-16.923-7.592-16.923-16.923c0-9.331,7.592-16.923,16.923-16.923c9.332,0,16.923,7.592,16.923,16.923   C172.795,324.512,165.204,332.104,155.872,332.104z"/>
</g>















</svg>